<?xml version="1.0" encoding="utf-8" standalone="no"?>
<!DOCTYPE svg PUBLIC "-//W3C//DTD SVG 1.1//EN"
  "http://www.w3.org/Graphics/SVG/1.1/DTD/svg11.dtd">
<svg xmlns:xlink="http://www.w3.org/1999/xlink" width="135.82844pt" height="107.03952pt" viewBox="0 0 135.82844 107.03952" xmlns="http://www.w3.org/2000/svg" version="1.1">
 <metadata>
  <rdf:RDF xmlns:dc="http://purl.org/dc/elements/1.1/" xmlns:cc="http://creativecommons.org/ns#" xmlns:rdf="http://www.w3.org/1999/02/22-rdf-syntax-ns#">
   <cc:Work>
    <dc:type rdf:resource="http://purl.org/dc/dcmitype/StillImage"/>
    <dc:date>2026-03-31T12:41:04.117012</dc:date>
    <dc:format>image/svg+xml</dc:format>
    <dc:creator>
     <cc:Agent>
      <dc:title>Matplotlib v3.8.4, https://matplotlib.org/</dc:title>
     </cc:Agent>
    </dc:creator>
   </cc:Work>
  </rdf:RDF>
 </metadata>
 <defs>
  <style type="text/css">*{stroke-linejoin: round; stroke-linecap: butt}</style>
 </defs>
 <g id="figure_1">
  <g id="patch_1">
   <path d="M 0 107.03952 
L 135.82844 107.03952 
L 135.82844 0 
L 0 0 
z
" style="fill: #ffffff"/>
  </g>
  <g id="axes_1">
   <g id="patch_2">
    <path d="M 44.509156 79.723457 
L 134.665225 79.723457 
L 134.665225 0.72 
L 44.509156 0.72 
z
" style="fill: #ffffff"/>
   </g>
   <g id="matplotlib.axis_1">
    <g id="xtick_1">
     <g id="line2d_1">
      <path d="M 52.340693 79.723457 
L 52.340693 0.72 
" clip-path="url(#p4af86f299d)" style="fill: none; stroke-dasharray: 0.74,0.32; stroke-dashoffset: 0; stroke: #b0b0b0; stroke-width: 0.2"/>
     </g>
     <g id="line2d_2">
      <defs>
       <path id="mfa6e3f3d4e" d="M 0 0 
L 0 -3.2 
" style="stroke: #000000; stroke-width: 0.8"/>
      </defs>
      <g>
       <use xlink:href="#mfa6e3f3d4e" x="52.340693" y="79.723457" style="stroke: #000000; stroke-width: 0.8"/>
      </g>
     </g>
     <g id="line2d_3">
      <defs>
       <path id="m14ab4aa291" d="M 0 0 
L 0 3.2 
" style="stroke: #000000; stroke-width: 0.8"/>
      </defs>
      <g>
       <use xlink:href="#m14ab4aa291" x="52.340693" y="0.72" style="stroke: #000000; stroke-width: 0.8"/>
      </g>
     </g>
     <g id="text_1">
      <!-- 0.0000 -->
      <g transform="translate(37.994537 89.454176) scale(0.082 -0.082)">
       <defs>
        <path id="DejaVuSerif-30" d="M 2034 219 
Q 2513 219 2750 744 
Q 2988 1269 2988 2328 
Q 2988 3391 2750 3916 
Q 2513 4441 2034 4441 
Q 1556 4441 1318 3916 
Q 1081 3391 1081 2328 
Q 1081 1269 1318 744 
Q 1556 219 2034 219 
z
M 2034 -91 
Q 1275 -91 848 546 
Q 422 1184 422 2328 
Q 422 3475 848 4112 
Q 1275 4750 2034 4750 
Q 2797 4750 3222 4112 
Q 3647 3475 3647 2328 
Q 3647 1184 3222 546 
Q 2797 -91 2034 -91 
z
" transform="scale(0.015625)"/>
        <path id="DejaVuSerif-2e" d="M 603 325 
Q 603 500 722 622 
Q 841 744 1019 744 
Q 1191 744 1312 622 
Q 1434 500 1434 325 
Q 1434 153 1312 31 
Q 1191 -91 1019 -91 
Q 841 -91 722 29 
Q 603 150 603 325 
z
" transform="scale(0.015625)"/>
       </defs>
       <use xlink:href="#DejaVuSerif-30"/>
       <use xlink:href="#DejaVuSerif-2e" x="63.623047"/>
       <use xlink:href="#DejaVuSerif-30" x="95.410156"/>
       <use xlink:href="#DejaVuSerif-30" x="159.033203"/>
       <use xlink:href="#DejaVuSerif-30" x="222.65625"/>
       <use xlink:href="#DejaVuSerif-30" x="286.279297"/>
      </g>
     </g>
    </g>
    <g id="xtick_2">
     <g id="line2d_4">
      <path d="M 86.551488 79.723457 
L 86.551488 0.72 
" clip-path="url(#p4af86f299d)" style="fill: none; stroke-dasharray: 0.74,0.32; stroke-dashoffset: 0; stroke: #b0b0b0; stroke-width: 0.2"/>
     </g>
     <g id="line2d_5">
      <g>
       <use xlink:href="#mfa6e3f3d4e" x="86.551488" y="79.723457" style="stroke: #000000; stroke-width: 0.8"/>
      </g>
     </g>
     <g id="line2d_6">
      <g>
       <use xlink:href="#m14ab4aa291" x="86.551488" y="0.72" style="stroke: #000000; stroke-width: 0.8"/>
      </g>
     </g>
     <g id="text_2">
      <!-- 0.0001 -->
      <g transform="translate(72.205332 89.454176) scale(0.082 -0.082)">
       <defs>
        <path id="DejaVuSerif-31" d="M 909 0 
L 909 331 
L 1722 331 
L 1722 4213 
L 781 3603 
L 781 4013 
L 1919 4750 
L 2350 4750 
L 2350 331 
L 3163 331 
L 3163 0 
L 909 0 
z
" transform="scale(0.015625)"/>
       </defs>
       <use xlink:href="#DejaVuSerif-30"/>
       <use xlink:href="#DejaVuSerif-2e" x="63.623047"/>
       <use xlink:href="#DejaVuSerif-30" x="95.410156"/>
       <use xlink:href="#DejaVuSerif-30" x="159.033203"/>
       <use xlink:href="#DejaVuSerif-30" x="222.65625"/>
       <use xlink:href="#DejaVuSerif-31" x="286.279297"/>
      </g>
     </g>
    </g>
    <g id="xtick_3">
     <g id="line2d_7">
      <path d="M 120.762283 79.723457 
L 120.762283 0.72 
" clip-path="url(#p4af86f299d)" style="fill: none; stroke-dasharray: 0.74,0.32; stroke-dashoffset: 0; stroke: #b0b0b0; stroke-width: 0.2"/>
     </g>
     <g id="line2d_8">
      <g>
       <use xlink:href="#mfa6e3f3d4e" x="120.762283" y="79.723457" style="stroke: #000000; stroke-width: 0.8"/>
      </g>
     </g>
     <g id="line2d_9">
      <g>
       <use xlink:href="#m14ab4aa291" x="120.762283" y="0.72" style="stroke: #000000; stroke-width: 0.8"/>
      </g>
     </g>
     <g id="text_3">
      <!-- 0.0002 -->
      <g transform="translate(106.416127 89.454176) scale(0.082 -0.082)">
       <defs>
        <path id="DejaVuSerif-32" d="M 819 3553 
L 469 3553 
L 469 4384 
Q 803 4563 1142 4656 
Q 1481 4750 1806 4750 
Q 2534 4750 2956 4397 
Q 3378 4044 3378 3438 
Q 3378 2753 2422 1800 
Q 2347 1728 2309 1691 
L 1131 513 
L 3078 513 
L 3078 1088 
L 3444 1088 
L 3444 0 
L 434 0 
L 434 341 
L 1850 1753 
Q 2319 2222 2519 2614 
Q 2719 3006 2719 3438 
Q 2719 3909 2473 4175 
Q 2228 4441 1797 4441 
Q 1350 4441 1106 4219 
Q 863 3997 819 3553 
z
" transform="scale(0.015625)"/>
       </defs>
       <use xlink:href="#DejaVuSerif-30"/>
       <use xlink:href="#DejaVuSerif-2e" x="63.623047"/>
       <use xlink:href="#DejaVuSerif-30" x="95.410156"/>
       <use xlink:href="#DejaVuSerif-30" x="159.033203"/>
       <use xlink:href="#DejaVuSerif-30" x="222.65625"/>
       <use xlink:href="#DejaVuSerif-32" x="286.279297"/>
      </g>
     </g>
    </g>
    <g id="xtick_4">
     <g id="line2d_10">
      <defs>
       <path id="mf22dd24be9" d="M 0 0 
L 0 -1.8 
" style="stroke: #000000; stroke-width: 0.6"/>
      </defs>
      <g>
       <use xlink:href="#mf22dd24be9" x="45.498534" y="79.723457" style="stroke: #000000; stroke-width: 0.6"/>
      </g>
     </g>
     <g id="line2d_11">
      <defs>
       <path id="m858000a753" d="M 0 0 
L 0 1.8 
" style="stroke: #000000; stroke-width: 0.6"/>
      </defs>
      <g>
       <use xlink:href="#m858000a753" x="45.498534" y="0.72" style="stroke: #000000; stroke-width: 0.6"/>
      </g>
     </g>
    </g>
    <g id="xtick_5">
     <g id="line2d_12">
      <g>
       <use xlink:href="#mf22dd24be9" x="59.182852" y="79.723457" style="stroke: #000000; stroke-width: 0.6"/>
      </g>
     </g>
     <g id="line2d_13">
      <g>
       <use xlink:href="#m858000a753" x="59.182852" y="0.72" style="stroke: #000000; stroke-width: 0.6"/>
      </g>
     </g>
    </g>
    <g id="xtick_6">
     <g id="line2d_14">
      <g>
       <use xlink:href="#mf22dd24be9" x="66.025011" y="79.723457" style="stroke: #000000; stroke-width: 0.6"/>
      </g>
     </g>
     <g id="line2d_15">
      <g>
       <use xlink:href="#m858000a753" x="66.025011" y="0.72" style="stroke: #000000; stroke-width: 0.6"/>
      </g>
     </g>
    </g>
    <g id="xtick_7">
     <g id="line2d_16">
      <g>
       <use xlink:href="#mf22dd24be9" x="72.86717" y="79.723457" style="stroke: #000000; stroke-width: 0.6"/>
      </g>
     </g>
     <g id="line2d_17">
      <g>
       <use xlink:href="#m858000a753" x="72.86717" y="0.72" style="stroke: #000000; stroke-width: 0.6"/>
      </g>
     </g>
    </g>
    <g id="xtick_8">
     <g id="line2d_18">
      <g>
       <use xlink:href="#mf22dd24be9" x="79.709329" y="79.723457" style="stroke: #000000; stroke-width: 0.6"/>
      </g>
     </g>
     <g id="line2d_19">
      <g>
       <use xlink:href="#m858000a753" x="79.709329" y="0.72" style="stroke: #000000; stroke-width: 0.6"/>
      </g>
     </g>
    </g>
    <g id="xtick_9">
     <g id="line2d_20">
      <g>
       <use xlink:href="#mf22dd24be9" x="93.393647" y="79.723457" style="stroke: #000000; stroke-width: 0.6"/>
      </g>
     </g>
     <g id="line2d_21">
      <g>
       <use xlink:href="#m858000a753" x="93.393647" y="0.72" style="stroke: #000000; stroke-width: 0.6"/>
      </g>
     </g>
    </g>
    <g id="xtick_10">
     <g id="line2d_22">
      <g>
       <use xlink:href="#mf22dd24be9" x="100.235806" y="79.723457" style="stroke: #000000; stroke-width: 0.6"/>
      </g>
     </g>
     <g id="line2d_23">
      <g>
       <use xlink:href="#m858000a753" x="100.235806" y="0.72" style="stroke: #000000; stroke-width: 0.6"/>
      </g>
     </g>
    </g>
    <g id="xtick_11">
     <g id="line2d_24">
      <g>
       <use xlink:href="#mf22dd24be9" x="107.077965" y="79.723457" style="stroke: #000000; stroke-width: 0.6"/>
      </g>
     </g>
     <g id="line2d_25">
      <g>
       <use xlink:href="#m858000a753" x="107.077965" y="0.72" style="stroke: #000000; stroke-width: 0.6"/>
      </g>
     </g>
    </g>
    <g id="xtick_12">
     <g id="line2d_26">
      <g>
       <use xlink:href="#mf22dd24be9" x="113.920124" y="79.723457" style="stroke: #000000; stroke-width: 0.6"/>
      </g>
     </g>
     <g id="line2d_27">
      <g>
       <use xlink:href="#m858000a753" x="113.920124" y="0.72" style="stroke: #000000; stroke-width: 0.6"/>
      </g>
     </g>
    </g>
    <g id="xtick_13">
     <g id="line2d_28">
      <g>
       <use xlink:href="#mf22dd24be9" x="127.604442" y="79.723457" style="stroke: #000000; stroke-width: 0.6"/>
      </g>
     </g>
     <g id="line2d_29">
      <g>
       <use xlink:href="#m858000a753" x="127.604442" y="0.72" style="stroke: #000000; stroke-width: 0.6"/>
      </g>
     </g>
    </g>
    <g id="xtick_14">
     <g id="line2d_30">
      <g>
       <use xlink:href="#mf22dd24be9" x="134.446601" y="79.723457" style="stroke: #000000; stroke-width: 0.6"/>
      </g>
     </g>
     <g id="line2d_31">
      <g>
       <use xlink:href="#m858000a753" x="134.446601" y="0.72" style="stroke: #000000; stroke-width: 0.6"/>
      </g>
     </g>
    </g>
    <g id="text_4">
     <!-- $\hat{Q}_2(\omega)$ -->
     <g transform="translate(77.662191 104.06952) scale(0.09 -0.09)">
      <defs>
       <path id="Cmr10-5e" d="M 863 3444 
L 738 3578 
L 1600 4441 
L 2456 3578 
L 2328 3444 
L 1600 4084 
L 863 3444 
z
" transform="scale(0.015625)"/>
       <path id="Cmmi10-51" d="M 1947 -141 
Q 1466 -141 1094 79 
Q 722 300 520 692 
Q 319 1084 319 1563 
Q 319 2259 714 2950 
Q 1109 3641 1756 4077 
Q 2403 4513 3109 4513 
Q 3475 4513 3778 4381 
Q 4081 4250 4290 4017 
Q 4500 3784 4614 3471 
Q 4728 3159 4728 2791 
Q 4728 2366 4581 1936 
Q 4434 1506 4171 1136 
Q 3909 766 3559 484 
Q 3209 203 2809 38 
Q 2850 -256 2934 -425 
Q 3019 -594 3256 -594 
Q 3506 -594 3726 -412 
Q 3947 -231 4006 13 
Q 4019 72 4078 72 
Q 4147 72 4147 -13 
Q 4100 -219 4008 -430 
Q 3916 -641 3786 -823 
Q 3656 -1006 3478 -1123 
Q 3300 -1241 3084 -1241 
Q 2547 -1241 2547 -550 
Q 2547 -509 2562 -332 
Q 2578 -156 2578 -44 
Q 2269 -141 1947 -141 
z
M 1709 300 
Q 1709 44 1991 44 
Q 2275 44 2591 184 
L 2591 244 
Q 2591 503 2509 648 
Q 2428 794 2194 794 
Q 2078 794 1964 723 
Q 1850 653 1779 539 
Q 1709 425 1709 300 
z
M 1544 288 
Q 1544 456 1637 612 
Q 1731 769 1881 864 
Q 2031 959 2203 959 
Q 2481 959 2607 771 
Q 2734 584 2778 281 
Q 3188 525 3500 978 
Q 3813 1431 3977 1973 
Q 4141 2516 4141 3003 
Q 4141 3356 4023 3656 
Q 3906 3956 3664 4140 
Q 3422 4325 3066 4325 
Q 2722 4325 2403 4156 
Q 2084 3988 1813 3706 
Q 1550 3434 1342 3032 
Q 1134 2631 1021 2193 
Q 909 1756 909 1356 
Q 909 947 1068 612 
Q 1228 278 1569 128 
Q 1544 194 1544 288 
z
" transform="scale(0.015625)"/>
       <path id="Cmr10-32" d="M 319 0 
L 319 172 
Q 319 188 331 206 
L 1325 1306 
Q 1550 1550 1690 1715 
Q 1831 1881 1968 2097 
Q 2106 2313 2186 2536 
Q 2266 2759 2266 3009 
Q 2266 3272 2169 3511 
Q 2072 3750 1880 3894 
Q 1688 4038 1416 4038 
Q 1138 4038 916 3870 
Q 694 3703 603 3438 
Q 628 3444 672 3444 
Q 816 3444 917 3347 
Q 1019 3250 1019 3097 
Q 1019 2950 917 2848 
Q 816 2747 672 2747 
Q 522 2747 420 2851 
Q 319 2956 319 3097 
Q 319 3338 409 3548 
Q 500 3759 670 3923 
Q 841 4088 1055 4175 
Q 1269 4263 1509 4263 
Q 1875 4263 2190 4108 
Q 2506 3953 2690 3670 
Q 2875 3388 2875 3009 
Q 2875 2731 2753 2481 
Q 2631 2231 2440 2026 
Q 2250 1822 1953 1562 
Q 1656 1303 1563 1216 
L 838 519 
L 1453 519 
Q 1906 519 2211 526 
Q 2516 534 2534 550 
Q 2609 631 2688 1141 
L 2875 1141 
L 2694 0 
L 319 0 
z
" transform="scale(0.015625)"/>
       <path id="Cmr10-28" d="M 1984 -1588 
Q 1628 -1306 1370 -942 
Q 1113 -578 948 -165 
Q 784 247 703 697 
Q 622 1147 622 1600 
Q 622 2059 703 2509 
Q 784 2959 951 3375 
Q 1119 3791 1378 4153 
Q 1638 4516 1984 4788 
Q 1984 4800 2016 4800 
L 2075 4800 
Q 2094 4800 2109 4783 
Q 2125 4766 2125 4744 
Q 2125 4716 2113 4703 
Q 1800 4397 1592 4047 
Q 1384 3697 1257 3301 
Q 1131 2906 1075 2482 
Q 1019 2059 1019 1600 
Q 1019 -434 2106 -1491 
Q 2125 -1509 2125 -1544 
Q 2125 -1559 2108 -1579 
Q 2091 -1600 2075 -1600 
L 2016 -1600 
Q 1984 -1600 1984 -1588 
z
" transform="scale(0.015625)"/>
       <path id="Cmmi10-21" d="M 775 -72 
Q 413 -72 252 193 
Q 91 459 91 844 
Q 91 1097 136 1339 
Q 181 1581 273 1829 
Q 366 2078 484 2295 
Q 603 2513 750 2719 
Q 778 2759 825 2759 
Q 866 2759 891 2734 
Q 916 2709 916 2675 
Q 916 2641 897 2613 
Q 313 1809 313 1131 
Q 313 838 448 627 
Q 584 416 863 416 
Q 1103 416 1308 556 
Q 1513 697 1663 916 
Q 1663 1028 1702 1265 
Q 1741 1503 1823 1689 
Q 1906 1875 2022 1875 
Q 2169 1875 2169 1703 
Q 2169 1603 2126 1451 
Q 2084 1300 2032 1169 
Q 1981 1038 1906 872 
Q 1981 416 2363 416 
Q 2584 416 2807 544 
Q 3031 672 3203 880 
Q 3375 1088 3473 1328 
Q 3572 1569 3572 1784 
Q 3572 1978 3511 2086 
Q 3450 2194 3350 2312 
Q 3250 2431 3250 2503 
Q 3250 2628 3356 2731 
Q 3463 2834 3584 2834 
Q 3741 2834 3806 2692 
Q 3872 2550 3872 2369 
Q 3872 2075 3755 1628 
Q 3638 1181 3488 884 
Q 3281 481 2970 204 
Q 2659 -72 2272 -72 
Q 2025 -72 1873 76 
Q 1722 225 1678 481 
Q 1500 228 1272 78 
Q 1044 -72 775 -72 
z
" transform="scale(0.015625)"/>
       <path id="Cmr10-29" d="M 416 -1600 
Q 359 -1600 359 -1544 
Q 359 -1516 372 -1503 
Q 1466 -434 1466 1600 
Q 1466 3634 384 4691 
Q 359 4706 359 4744 
Q 359 4766 376 4783 
Q 394 4800 416 4800 
L 475 4800 
Q 494 4800 506 4788 
Q 966 4425 1272 3906 
Q 1578 3388 1720 2800 
Q 1863 2213 1863 1600 
Q 1863 1147 1786 708 
Q 1709 269 1542 -157 
Q 1375 -584 1119 -945 
Q 863 -1306 506 -1588 
Q 494 -1600 475 -1600 
L 416 -1600 
z
" transform="scale(0.015625)"/>
      </defs>
      <use xlink:href="#Cmr10-5e" transform="translate(24.219727 29.609375)"/>
      <use xlink:href="#Cmmi10-51" transform="translate(0 0.40625)"/>
      <use xlink:href="#Cmr10-32" transform="translate(83.468047 -16.6) scale(0.7)"/>
      <use xlink:href="#Cmr10-28" transform="translate(124.845391 0.40625)"/>
      <use xlink:href="#Cmmi10-21" transform="translate(163.66375 0.40625)"/>
      <use xlink:href="#Cmr10-29" transform="translate(225.870781 0.40625)"/>
     </g>
    </g>
   </g>
   <g id="matplotlib.axis_2">
    <g id="ytick_1">
     <g id="line2d_32">
      <path d="M 44.509156 79.14247 
L 134.665225 79.14247 
" clip-path="url(#p4af86f299d)" style="fill: none; stroke-dasharray: 0.74,0.32; stroke-dashoffset: 0; stroke: #b0b0b0; stroke-width: 0.2"/>
     </g>
     <g id="line2d_33">
      <defs>
       <path id="m878efee45f" d="M 0 0 
L 3.2 0 
" style="stroke: #000000; stroke-width: 0.8"/>
      </defs>
      <g>
       <use xlink:href="#m878efee45f" x="44.509156" y="79.14247" style="stroke: #000000; stroke-width: 0.8"/>
      </g>
     </g>
     <g id="line2d_34">
      <defs>
       <path id="mb1b8c84925" d="M 0 0 
L -3.2 0 
" style="stroke: #000000; stroke-width: 0.8"/>
      </defs>
      <g>
       <use xlink:href="#mb1b8c84925" x="134.665225" y="79.14247" style="stroke: #000000; stroke-width: 0.8"/>
      </g>
     </g>
     <g id="text_5">
      <!-- −1.75 -->
      <g transform="translate(15.88 82.25783) scale(0.082 -0.082)">
       <defs>
        <path id="DejaVuSerif-2212" d="M 678 2259 
L 4684 2259 
L 4684 1753 
L 678 1753 
L 678 2259 
z
" transform="scale(0.015625)"/>
        <path id="DejaVuSerif-37" d="M 3609 4347 
L 1784 0 
L 1319 0 
L 3059 4153 
L 903 4153 
L 903 3578 
L 538 3578 
L 538 4666 
L 3609 4666 
L 3609 4347 
z
" transform="scale(0.015625)"/>
        <path id="DejaVuSerif-35" d="M 3219 4666 
L 3219 4153 
L 1081 4153 
L 1081 2816 
Q 1244 2928 1461 2984 
Q 1678 3041 1947 3041 
Q 2703 3041 3140 2622 
Q 3578 2203 3578 1478 
Q 3578 738 3136 323 
Q 2694 -91 1894 -91 
Q 1572 -91 1234 -12 
Q 897 66 544 225 
L 544 1131 
L 897 1131 
Q 925 688 1179 453 
Q 1434 219 1894 219 
Q 2388 219 2653 544 
Q 2919 869 2919 1478 
Q 2919 2084 2655 2407 
Q 2391 2731 1894 2731 
Q 1613 2731 1398 2631 
Q 1184 2531 1019 2322 
L 750 2322 
L 750 4666 
L 3219 4666 
z
" transform="scale(0.015625)"/>
       </defs>
       <use xlink:href="#DejaVuSerif-2212"/>
       <use xlink:href="#DejaVuSerif-31" x="83.789062"/>
       <use xlink:href="#DejaVuSerif-2e" x="147.412109"/>
       <use xlink:href="#DejaVuSerif-37" x="179.199219"/>
       <use xlink:href="#DejaVuSerif-35" x="242.822266"/>
      </g>
     </g>
    </g>
    <g id="ytick_2">
     <g id="line2d_35">
      <path d="M 44.509156 59.371745 
L 134.665225 59.371745 
" clip-path="url(#p4af86f299d)" style="fill: none; stroke-dasharray: 0.74,0.32; stroke-dashoffset: 0; stroke: #b0b0b0; stroke-width: 0.2"/>
     </g>
     <g id="line2d_36">
      <g>
       <use xlink:href="#m878efee45f" x="44.509156" y="59.371745" style="stroke: #000000; stroke-width: 0.8"/>
      </g>
     </g>
     <g id="line2d_37">
      <g>
       <use xlink:href="#mb1b8c84925" x="134.665225" y="59.371745" style="stroke: #000000; stroke-width: 0.8"/>
      </g>
     </g>
     <g id="text_6">
      <!-- −1.50 -->
      <g transform="translate(15.88 62.487104) scale(0.082 -0.082)">
       <use xlink:href="#DejaVuSerif-2212"/>
       <use xlink:href="#DejaVuSerif-31" x="83.789062"/>
       <use xlink:href="#DejaVuSerif-2e" x="147.412109"/>
       <use xlink:href="#DejaVuSerif-35" x="179.199219"/>
       <use xlink:href="#DejaVuSerif-30" x="242.822266"/>
      </g>
     </g>
    </g>
    <g id="ytick_3">
     <g id="line2d_38">
      <path d="M 44.509156 39.60102 
L 134.665225 39.60102 
" clip-path="url(#p4af86f299d)" style="fill: none; stroke-dasharray: 0.74,0.32; stroke-dashoffset: 0; stroke: #b0b0b0; stroke-width: 0.2"/>
     </g>
     <g id="line2d_39">
      <g>
       <use xlink:href="#m878efee45f" x="44.509156" y="39.60102" style="stroke: #000000; stroke-width: 0.8"/>
      </g>
     </g>
     <g id="line2d_40">
      <g>
       <use xlink:href="#mb1b8c84925" x="134.665225" y="39.60102" style="stroke: #000000; stroke-width: 0.8"/>
      </g>
     </g>
     <g id="text_7">
      <!-- −1.25 -->
      <g transform="translate(15.88 42.716379) scale(0.082 -0.082)">
       <use xlink:href="#DejaVuSerif-2212"/>
       <use xlink:href="#DejaVuSerif-31" x="83.789062"/>
       <use xlink:href="#DejaVuSerif-2e" x="147.412109"/>
       <use xlink:href="#DejaVuSerif-32" x="179.199219"/>
       <use xlink:href="#DejaVuSerif-35" x="242.822266"/>
      </g>
     </g>
    </g>
    <g id="ytick_4">
     <g id="line2d_41">
      <path d="M 44.509156 19.830294 
L 134.665225 19.830294 
" clip-path="url(#p4af86f299d)" style="fill: none; stroke-dasharray: 0.74,0.32; stroke-dashoffset: 0; stroke: #b0b0b0; stroke-width: 0.2"/>
     </g>
     <g id="line2d_42">
      <g>
       <use xlink:href="#m878efee45f" x="44.509156" y="19.830294" style="stroke: #000000; stroke-width: 0.8"/>
      </g>
     </g>
     <g id="line2d_43">
      <g>
       <use xlink:href="#mb1b8c84925" x="134.665225" y="19.830294" style="stroke: #000000; stroke-width: 0.8"/>
      </g>
     </g>
     <g id="text_8">
      <!-- −1.00 -->
      <g transform="translate(15.88 22.945653) scale(0.082 -0.082)">
       <use xlink:href="#DejaVuSerif-2212"/>
       <use xlink:href="#DejaVuSerif-31" x="83.789062"/>
       <use xlink:href="#DejaVuSerif-2e" x="147.412109"/>
       <use xlink:href="#DejaVuSerif-30" x="179.199219"/>
       <use xlink:href="#DejaVuSerif-30" x="242.822266"/>
      </g>
     </g>
    </g>
    <g id="ytick_5">
     <g id="line2d_44">
      <defs>
       <path id="md4ab1df7be" d="M 0 0 
L 1.8 0 
" style="stroke: #000000; stroke-width: 0.6"/>
      </defs>
      <g>
       <use xlink:href="#md4ab1df7be" x="44.509156" y="75.188325" style="stroke: #000000; stroke-width: 0.6"/>
      </g>
     </g>
     <g id="line2d_45">
      <defs>
       <path id="m1b2a116064" d="M 0 0 
L -1.8 0 
" style="stroke: #000000; stroke-width: 0.6"/>
      </defs>
      <g>
       <use xlink:href="#m1b2a116064" x="134.665225" y="75.188325" style="stroke: #000000; stroke-width: 0.6"/>
      </g>
     </g>
    </g>
    <g id="ytick_6">
     <g id="line2d_46">
      <g>
       <use xlink:href="#md4ab1df7be" x="44.509156" y="71.23418" style="stroke: #000000; stroke-width: 0.6"/>
      </g>
     </g>
     <g id="line2d_47">
      <g>
       <use xlink:href="#m1b2a116064" x="134.665225" y="71.23418" style="stroke: #000000; stroke-width: 0.6"/>
      </g>
     </g>
    </g>
    <g id="ytick_7">
     <g id="line2d_48">
      <g>
       <use xlink:href="#md4ab1df7be" x="44.509156" y="67.280035" style="stroke: #000000; stroke-width: 0.6"/>
      </g>
     </g>
     <g id="line2d_49">
      <g>
       <use xlink:href="#m1b2a116064" x="134.665225" y="67.280035" style="stroke: #000000; stroke-width: 0.6"/>
      </g>
     </g>
    </g>
    <g id="ytick_8">
     <g id="line2d_50">
      <g>
       <use xlink:href="#md4ab1df7be" x="44.509156" y="63.32589" style="stroke: #000000; stroke-width: 0.6"/>
      </g>
     </g>
     <g id="line2d_51">
      <g>
       <use xlink:href="#m1b2a116064" x="134.665225" y="63.32589" style="stroke: #000000; stroke-width: 0.6"/>
      </g>
     </g>
    </g>
    <g id="ytick_9">
     <g id="line2d_52">
      <g>
       <use xlink:href="#md4ab1df7be" x="44.509156" y="55.4176" style="stroke: #000000; stroke-width: 0.6"/>
      </g>
     </g>
     <g id="line2d_53">
      <g>
       <use xlink:href="#m1b2a116064" x="134.665225" y="55.4176" style="stroke: #000000; stroke-width: 0.6"/>
      </g>
     </g>
    </g>
    <g id="ytick_10">
     <g id="line2d_54">
      <g>
       <use xlink:href="#md4ab1df7be" x="44.509156" y="51.463455" style="stroke: #000000; stroke-width: 0.6"/>
      </g>
     </g>
     <g id="line2d_55">
      <g>
       <use xlink:href="#m1b2a116064" x="134.665225" y="51.463455" style="stroke: #000000; stroke-width: 0.6"/>
      </g>
     </g>
    </g>
    <g id="ytick_11">
     <g id="line2d_56">
      <g>
       <use xlink:href="#md4ab1df7be" x="44.509156" y="47.50931" style="stroke: #000000; stroke-width: 0.6"/>
      </g>
     </g>
     <g id="line2d_57">
      <g>
       <use xlink:href="#m1b2a116064" x="134.665225" y="47.50931" style="stroke: #000000; stroke-width: 0.6"/>
      </g>
     </g>
    </g>
    <g id="ytick_12">
     <g id="line2d_58">
      <g>
       <use xlink:href="#md4ab1df7be" x="44.509156" y="43.555165" style="stroke: #000000; stroke-width: 0.6"/>
      </g>
     </g>
     <g id="line2d_59">
      <g>
       <use xlink:href="#m1b2a116064" x="134.665225" y="43.555165" style="stroke: #000000; stroke-width: 0.6"/>
      </g>
     </g>
    </g>
    <g id="ytick_13">
     <g id="line2d_60">
      <g>
       <use xlink:href="#md4ab1df7be" x="44.509156" y="35.646874" style="stroke: #000000; stroke-width: 0.6"/>
      </g>
     </g>
     <g id="line2d_61">
      <g>
       <use xlink:href="#m1b2a116064" x="134.665225" y="35.646874" style="stroke: #000000; stroke-width: 0.6"/>
      </g>
     </g>
    </g>
    <g id="ytick_14">
     <g id="line2d_62">
      <g>
       <use xlink:href="#md4ab1df7be" x="44.509156" y="31.692729" style="stroke: #000000; stroke-width: 0.6"/>
      </g>
     </g>
     <g id="line2d_63">
      <g>
       <use xlink:href="#m1b2a116064" x="134.665225" y="31.692729" style="stroke: #000000; stroke-width: 0.6"/>
      </g>
     </g>
    </g>
    <g id="ytick_15">
     <g id="line2d_64">
      <g>
       <use xlink:href="#md4ab1df7be" x="44.509156" y="27.738584" style="stroke: #000000; stroke-width: 0.6"/>
      </g>
     </g>
     <g id="line2d_65">
      <g>
       <use xlink:href="#m1b2a116064" x="134.665225" y="27.738584" style="stroke: #000000; stroke-width: 0.6"/>
      </g>
     </g>
    </g>
    <g id="ytick_16">
     <g id="line2d_66">
      <g>
       <use xlink:href="#md4ab1df7be" x="44.509156" y="23.784439" style="stroke: #000000; stroke-width: 0.6"/>
      </g>
     </g>
     <g id="line2d_67">
      <g>
       <use xlink:href="#m1b2a116064" x="134.665225" y="23.784439" style="stroke: #000000; stroke-width: 0.6"/>
      </g>
     </g>
    </g>
    <g id="ytick_17">
     <g id="line2d_68">
      <g>
       <use xlink:href="#md4ab1df7be" x="44.509156" y="15.876149" style="stroke: #000000; stroke-width: 0.6"/>
      </g>
     </g>
     <g id="line2d_69">
      <g>
       <use xlink:href="#m1b2a116064" x="134.665225" y="15.876149" style="stroke: #000000; stroke-width: 0.6"/>
      </g>
     </g>
    </g>
    <g id="ytick_18">
     <g id="line2d_70">
      <g>
       <use xlink:href="#md4ab1df7be" x="44.509156" y="11.922004" style="stroke: #000000; stroke-width: 0.6"/>
      </g>
     </g>
     <g id="line2d_71">
      <g>
       <use xlink:href="#m1b2a116064" x="134.665225" y="11.922004" style="stroke: #000000; stroke-width: 0.6"/>
      </g>
     </g>
    </g>
    <g id="ytick_19">
     <g id="line2d_72">
      <g>
       <use xlink:href="#md4ab1df7be" x="44.509156" y="7.967859" style="stroke: #000000; stroke-width: 0.6"/>
      </g>
     </g>
     <g id="line2d_73">
      <g>
       <use xlink:href="#m1b2a116064" x="134.665225" y="7.967859" style="stroke: #000000; stroke-width: 0.6"/>
      </g>
     </g>
    </g>
    <g id="ytick_20">
     <g id="line2d_74">
      <g>
       <use xlink:href="#md4ab1df7be" x="44.509156" y="4.013714" style="stroke: #000000; stroke-width: 0.6"/>
      </g>
     </g>
     <g id="line2d_75">
      <g>
       <use xlink:href="#m1b2a116064" x="134.665225" y="4.013714" style="stroke: #000000; stroke-width: 0.6"/>
      </g>
     </g>
    </g>
    <g id="text_9">
     <!-- $\hat{Q}_1(\omega)$ -->
     <g transform="translate(9.63 52.146729) rotate(-90) scale(0.09 -0.09)">
      <defs>
       <path id="Cmr10-31" d="M 594 0 
L 594 225 
Q 1394 225 1394 428 
L 1394 3788 
Q 1063 3628 556 3628 
L 556 3853 
Q 1341 3853 1741 4263 
L 1831 4263 
Q 1853 4263 1873 4245 
Q 1894 4228 1894 4206 
L 1894 428 
Q 1894 225 2694 225 
L 2694 0 
L 594 0 
z
" transform="scale(0.015625)"/>
      </defs>
      <use xlink:href="#Cmr10-5e" transform="translate(24.219727 29.609375)"/>
      <use xlink:href="#Cmmi10-51" transform="translate(0 0.40625)"/>
      <use xlink:href="#Cmr10-31" transform="translate(83.468047 -16.6) scale(0.7)"/>
      <use xlink:href="#Cmr10-28" transform="translate(124.845391 0.40625)"/>
      <use xlink:href="#Cmmi10-21" transform="translate(163.66375 0.40625)"/>
      <use xlink:href="#Cmr10-29" transform="translate(225.870781 0.40625)"/>
     </g>
    </g>
   </g>
   <g id="line2d_76">
    <path d="M 91.250718 70.673033 
L 118.623182 69.503973 
L 118.623182 69.503973 
" clip-path="url(#p4af86f299d)" style="fill: none; stroke: #0000ff; stroke-width: 0.95; stroke-linecap: square"/>
   </g>
   <g id="line2d_77">
    <path d="M 61.187654 32.763622 
L 70.299194 32.268255 
L 70.299194 32.268255 
" clip-path="url(#p4af86f299d)" style="fill: none; stroke-dasharray: 3.515,1.52; stroke-dashoffset: 0; stroke: #ffa500; stroke-width: 0.95"/>
   </g>
   <g id="line2d_78">
    <path d="M 54.638339 9.95282 
L 57.97465 9.749221 
L 57.97465 9.749221 
" clip-path="url(#p4af86f299d)" style="fill: none; stroke-dasharray: 6.08,1.52,0.95,1.52; stroke-dashoffset: 0; stroke: #008000; stroke-width: 0.95"/>
   </g>
   <g id="patch_3">
    <path d="M 44.509156 79.723458 
L 44.509156 0.72 
" style="fill: none; stroke: #000000; stroke-width: 0.8; stroke-linejoin: miter; stroke-linecap: square"/>
   </g>
   <g id="patch_4">
    <path d="M 134.665225 79.723458 
L 134.665225 0.72 
" style="fill: none; stroke: #000000; stroke-width: 0.8; stroke-linejoin: miter; stroke-linecap: square"/>
   </g>
   <g id="patch_5">
    <path d="M 44.509156 79.723457 
L 134.665225 79.723457 
" style="fill: none; stroke: #000000; stroke-width: 0.8; stroke-linejoin: miter; stroke-linecap: square"/>
   </g>
   <g id="patch_6">
    <path d="M 44.509156 0.72 
L 134.665225 0.72 
" style="fill: none; stroke: #000000; stroke-width: 0.8; stroke-linejoin: miter; stroke-linecap: square"/>
   </g>
   <g id="line2d_79">
    <defs>
     <path id="m85001a583b" d="M 0 1.35 
C 0.358024 1.35 0.701433 1.207755 0.954594 0.954594 
C 1.207755 0.701433 1.35 0.358024 1.35 0 
C 1.35 -0.358024 1.207755 -0.701433 0.954594 -0.954594 
C 0.701433 -1.207755 0.358024 -1.35 0 -1.35 
C -0.358024 -1.35 -0.701433 -1.207755 -0.954594 -0.954594 
C -1.207755 -0.701433 -1.35 -0.358024 -1.35 0 
C -1.35 0.358024 -1.207755 0.701433 -0.954594 0.954594 
C -0.701433 1.207755 -0.358024 1.35 0 1.35 
z
" style="stroke: #0000ff; stroke-width: 0.7"/>
    </defs>
    <g clip-path="url(#p4af86f299d)">
     <use xlink:href="#m85001a583b" x="91.250718" y="70.738367" style="fill: #ffffff; stroke: #0000ff; stroke-width: 0.7"/>
     <use xlink:href="#m85001a583b" x="101.738421" y="70.232645" style="fill: #ffffff; stroke: #0000ff; stroke-width: 0.7"/>
     <use xlink:href="#m85001a583b" x="106.72386" y="70.185204" style="fill: #ffffff; stroke: #0000ff; stroke-width: 0.7"/>
     <use xlink:href="#m85001a583b" x="105.122247" y="70.138932" style="fill: #ffffff; stroke: #0000ff; stroke-width: 0.7"/>
     <use xlink:href="#m85001a583b" x="110.941547" y="69.929548" style="fill: #ffffff; stroke: #0000ff; stroke-width: 0.7"/>
     <use xlink:href="#m85001a583b" x="116.461923" y="69.757425" style="fill: #ffffff; stroke: #0000ff; stroke-width: 0.7"/>
     <use xlink:href="#m85001a583b" x="109.526135" y="69.451046" style="fill: #ffffff; stroke: #0000ff; stroke-width: 0.7"/>
     <use xlink:href="#m85001a583b" x="114.286669" y="69.264107" style="fill: #ffffff; stroke: #0000ff; stroke-width: 0.7"/>
     <use xlink:href="#m85001a583b" x="118.623182" y="69.807629" style="fill: #ffffff; stroke: #0000ff; stroke-width: 0.7"/>
    </g>
   </g>
   <g id="line2d_80">
    <defs>
     <path id="meb1fb0cf79" d="M -1.3 1.3 
L 1.3 1.3 
L 1.3 -1.3 
L -1.3 -1.3 
z
" style="stroke: #ffa500; stroke-width: 0.7; stroke-linejoin: miter"/>
    </defs>
    <g clip-path="url(#p4af86f299d)">
     <use xlink:href="#meb1fb0cf79" x="61.187654" y="32.820176" style="fill: #ffffff; stroke: #ffa500; stroke-width: 0.7; stroke-linejoin: miter"/>
     <use xlink:href="#meb1fb0cf79" x="65.387933" y="32.546083" style="fill: #ffffff; stroke: #ffa500; stroke-width: 0.7; stroke-linejoin: miter"/>
     <use xlink:href="#meb1fb0cf79" x="65.600662" y="32.619489" style="fill: #ffffff; stroke: #ffa500; stroke-width: 0.7; stroke-linejoin: miter"/>
     <use xlink:href="#meb1fb0cf79" x="64.836526" y="32.638366" style="fill: #ffffff; stroke: #ffa500; stroke-width: 0.7; stroke-linejoin: miter"/>
     <use xlink:href="#meb1fb0cf79" x="67.10169" y="32.527908" style="fill: #ffffff; stroke: #ffa500; stroke-width: 0.7; stroke-linejoin: miter"/>
     <use xlink:href="#meb1fb0cf79" x="68.278141" y="32.436143" style="fill: #ffffff; stroke: #ffa500; stroke-width: 0.7; stroke-linejoin: miter"/>
     <use xlink:href="#meb1fb0cf79" x="66.556899" y="32.174632" style="fill: #ffffff; stroke: #ffa500; stroke-width: 0.7; stroke-linejoin: miter"/>
     <use xlink:href="#meb1fb0cf79" x="68.086908" y="32.073114" style="fill: #ffffff; stroke: #ffa500; stroke-width: 0.7; stroke-linejoin: miter"/>
     <use xlink:href="#meb1fb0cf79" x="70.299194" y="32.500648" style="fill: #ffffff; stroke: #ffa500; stroke-width: 0.7; stroke-linejoin: miter"/>
    </g>
   </g>
   <g id="line2d_81">
    <defs>
     <path id="m321ddf0bc9" d="M 0 -1.35 
L -1.35 1.35 
L 1.35 1.35 
z
" style="stroke: #008000; stroke-width: 0.7; stroke-linejoin: miter"/>
    </defs>
    <g clip-path="url(#p4af86f299d)">
     <use xlink:href="#m321ddf0bc9" x="54.638339" y="9.997995" style="fill: #ffffff; stroke: #008000; stroke-width: 0.7; stroke-linejoin: miter"/>
     <use xlink:href="#m321ddf0bc9" x="56.389588" y="9.818958" style="fill: #ffffff; stroke: #008000; stroke-width: 0.7; stroke-linejoin: miter"/>
     <use xlink:href="#m321ddf0bc9" x="56.036386" y="9.936914" style="fill: #ffffff; stroke: #008000; stroke-width: 0.7; stroke-linejoin: miter"/>
     <use xlink:href="#m321ddf0bc9" x="55.767186" y="9.968319" style="fill: #ffffff; stroke: #008000; stroke-width: 0.7; stroke-linejoin: miter"/>
     <use xlink:href="#m321ddf0bc9" x="56.644913" y="9.911314" style="fill: #ffffff; stroke: #008000; stroke-width: 0.7; stroke-linejoin: miter"/>
     <use xlink:href="#m321ddf0bc9" x="56.865797" y="9.854058" style="fill: #ffffff; stroke: #008000; stroke-width: 0.7; stroke-linejoin: miter"/>
     <use xlink:href="#m321ddf0bc9" x="56.455382" y="9.626879" style="fill: #ffffff; stroke: #008000; stroke-width: 0.7; stroke-linejoin: miter"/>
     <use xlink:href="#m321ddf0bc9" x="56.931325" y="9.572429" style="fill: #ffffff; stroke: #008000; stroke-width: 0.7; stroke-linejoin: miter"/>
     <use xlink:href="#m321ddf0bc9" x="57.97465" y="9.91464" style="fill: #ffffff; stroke: #008000; stroke-width: 0.7; stroke-linejoin: miter"/>
    </g>
   </g>
   <g id="legend_1">
    <g id="line2d_82">
     <g>
      <use xlink:href="#m85001a583b" x="101.377225" y="8.394812" style="fill: #ffffff; stroke: #0000ff; stroke-width: 0.7"/>
     </g>
    </g>
    <g id="text_10">
     <!-- $\omega=0.4$ -->
     <g transform="translate(107.077225 11.054812) scale(0.076 -0.076)">
      <defs>
       <path id="Cmr10-3d" d="M 481 850 
Q 428 850 393 890 
Q 359 931 359 978 
Q 359 1031 393 1068 
Q 428 1106 481 1106 
L 4500 1106 
Q 4547 1106 4581 1068 
Q 4616 1031 4616 978 
Q 4616 931 4581 890 
Q 4547 850 4500 850 
L 481 850 
z
M 481 2094 
Q 428 2094 393 2131 
Q 359 2169 359 2222 
Q 359 2269 393 2309 
Q 428 2350 481 2350 
L 4500 2350 
Q 4547 2350 4581 2309 
Q 4616 2269 4616 2222 
Q 4616 2169 4581 2131 
Q 4547 2094 4500 2094 
L 481 2094 
z
" transform="scale(0.015625)"/>
       <path id="Cmr10-30" d="M 1600 -141 
Q 816 -141 533 504 
Q 250 1150 250 2041 
Q 250 2597 351 3087 
Q 453 3578 754 3920 
Q 1056 4263 1600 4263 
Q 2022 4263 2290 4056 
Q 2559 3850 2700 3523 
Q 2841 3197 2892 2823 
Q 2944 2450 2944 2041 
Q 2944 1491 2842 1011 
Q 2741 531 2444 195 
Q 2147 -141 1600 -141 
z
M 1600 25 
Q 1956 25 2131 390 
Q 2306 756 2347 1200 
Q 2388 1644 2388 2144 
Q 2388 2625 2347 3031 
Q 2306 3438 2132 3767 
Q 1959 4097 1600 4097 
Q 1238 4097 1063 3765 
Q 888 3434 847 3029 
Q 806 2625 806 2144 
Q 806 1788 823 1472 
Q 841 1156 916 820 
Q 991 484 1158 254 
Q 1325 25 1600 25 
z
" transform="scale(0.015625)"/>
       <path id="Cmmi10-3a" d="M 538 353 
Q 538 497 644 600 
Q 750 703 891 703 
Q 978 703 1062 656 
Q 1147 609 1194 525 
Q 1241 441 1241 353 
Q 1241 213 1137 106 
Q 1034 0 891 0 
Q 750 0 644 106 
Q 538 213 538 353 
z
" transform="scale(0.015625)"/>
       <path id="Cmr10-34" d="M 178 1056 
L 178 1281 
L 2156 4231 
Q 2178 4263 2222 4263 
L 2316 4263 
Q 2388 4263 2388 4191 
L 2388 1281 
L 3016 1281 
L 3016 1056 
L 2388 1056 
L 2388 428 
Q 2388 297 2575 261 
Q 2763 225 3009 225 
L 3009 0 
L 1247 0 
L 1247 225 
Q 1494 225 1681 261 
Q 1869 297 1869 428 
L 1869 1056 
L 178 1056 
z
M 391 1281 
L 1906 1281 
L 1906 3547 
L 391 1281 
z
" transform="scale(0.015625)"/>
      </defs>
      <use xlink:href="#Cmmi10-21" transform="translate(0 0.390625)"/>
      <use xlink:href="#Cmr10-3d" transform="translate(79.765625 0.390625)"/>
      <use xlink:href="#Cmr10-30" transform="translate(175.009766 0.390625)"/>
      <use xlink:href="#Cmmi10-3a" transform="translate(225.009766 0.390625)"/>
      <use xlink:href="#Cmr10-34" transform="translate(252.695312 0.390625)"/>
     </g>
    </g>
    <g id="line2d_83">
     <g>
      <use xlink:href="#meb1fb0cf79" x="101.377225" y="16.130188" style="fill: #ffffff; stroke: #ffa500; stroke-width: 0.7; stroke-linejoin: miter"/>
     </g>
    </g>
    <g id="text_11">
     <!-- $\omega=0.5$ -->
     <g transform="translate(107.077225 18.790188) scale(0.076 -0.076)">
      <defs>
       <path id="Cmr10-35" d="M 556 728 
Q 622 541 758 387 
Q 894 234 1080 148 
Q 1266 63 1466 63 
Q 1928 63 2103 422 
Q 2278 781 2278 1294 
Q 2278 1516 2270 1667 
Q 2263 1819 2228 1959 
Q 2169 2184 2020 2353 
Q 1872 2522 1656 2522 
Q 1441 2522 1286 2456 
Q 1131 2391 1034 2303 
Q 938 2216 863 2119 
Q 788 2022 769 2016 
L 697 2016 
Q 681 2016 657 2036 
Q 634 2056 634 2075 
L 634 4213 
Q 634 4228 654 4245 
Q 675 4263 697 4263 
L 716 4263 
Q 1147 4056 1631 4056 
Q 2106 4056 2547 4263 
L 2566 4263 
Q 2588 4263 2606 4247 
Q 2625 4231 2625 4213 
L 2625 4153 
Q 2625 4122 2613 4122 
Q 2394 3831 2064 3668 
Q 1734 3506 1381 3506 
Q 1125 3506 856 3578 
L 856 2369 
Q 1069 2541 1236 2614 
Q 1403 2688 1663 2688 
Q 2016 2688 2295 2484 
Q 2575 2281 2725 1954 
Q 2875 1628 2875 1288 
Q 2875 903 2686 575 
Q 2497 247 2172 53 
Q 1847 -141 1466 -141 
Q 1150 -141 886 21 
Q 622 184 470 459 
Q 319 734 319 1044 
Q 319 1188 412 1278 
Q 506 1369 647 1369 
Q 788 1369 883 1276 
Q 978 1184 978 1044 
Q 978 906 883 811 
Q 788 716 647 716 
Q 625 716 597 720 
Q 569 725 556 728 
z
" transform="scale(0.015625)"/>
      </defs>
      <use xlink:href="#Cmmi10-21" transform="translate(0 0.390625)"/>
      <use xlink:href="#Cmr10-3d" transform="translate(79.765625 0.390625)"/>
      <use xlink:href="#Cmr10-30" transform="translate(175.009766 0.390625)"/>
      <use xlink:href="#Cmmi10-3a" transform="translate(225.009766 0.390625)"/>
      <use xlink:href="#Cmr10-35" transform="translate(252.695312 0.390625)"/>
     </g>
    </g>
    <g id="line2d_84">
     <g>
      <use xlink:href="#m321ddf0bc9" x="101.377225" y="23.865562" style="fill: #ffffff; stroke: #008000; stroke-width: 0.7; stroke-linejoin: miter"/>
     </g>
    </g>
    <g id="text_12">
     <!-- $\omega=0.6$ -->
     <g transform="translate(107.077225 26.525562) scale(0.076 -0.076)">
      <defs>
       <path id="Cmr10-36" d="M 1600 -141 
Q 1203 -141 937 70 
Q 672 281 526 617 
Q 381 953 325 1322 
Q 269 1691 269 2069 
Q 269 2575 466 3084 
Q 663 3594 1045 3928 
Q 1428 4263 1953 4263 
Q 2172 4263 2361 4180 
Q 2550 4097 2658 3936 
Q 2766 3775 2766 3547 
Q 2766 3416 2677 3327 
Q 2588 3238 2456 3238 
Q 2331 3238 2240 3328 
Q 2150 3419 2150 3547 
Q 2150 3672 2240 3762 
Q 2331 3853 2456 3853 
L 2491 3853 
Q 2409 3969 2261 4023 
Q 2113 4078 1953 4078 
Q 1759 4078 1595 3993 
Q 1431 3909 1300 3765 
Q 1169 3622 1081 3448 
Q 994 3275 945 3053 
Q 897 2831 884 2637 
Q 872 2444 872 2150 
Q 984 2413 1190 2580 
Q 1397 2747 1656 2747 
Q 1941 2747 2175 2631 
Q 2409 2516 2578 2311 
Q 2747 2106 2836 1843 
Q 2925 1581 2925 1313 
Q 2925 938 2758 598 
Q 2591 259 2287 59 
Q 1984 -141 1600 -141 
z
M 1600 63 
Q 1847 63 1997 175 
Q 2147 288 2217 473 
Q 2288 659 2305 848 
Q 2322 1038 2322 1313 
Q 2322 1675 2287 1931 
Q 2253 2188 2100 2383 
Q 1947 2578 1631 2578 
Q 1372 2578 1205 2403 
Q 1038 2228 961 1961 
Q 884 1694 884 1447 
Q 884 1363 891 1319 
Q 891 1309 889 1303 
Q 888 1297 884 1288 
Q 884 1013 940 731 
Q 997 450 1156 256 
Q 1316 63 1600 63 
z
" transform="scale(0.015625)"/>
      </defs>
      <use xlink:href="#Cmmi10-21" transform="translate(0 0.390625)"/>
      <use xlink:href="#Cmr10-3d" transform="translate(79.765625 0.390625)"/>
      <use xlink:href="#Cmr10-30" transform="translate(175.009766 0.390625)"/>
      <use xlink:href="#Cmmi10-3a" transform="translate(225.009766 0.390625)"/>
      <use xlink:href="#Cmr10-36" transform="translate(252.695312 0.390625)"/>
     </g>
    </g>
   </g>
  </g>
 </g>
 <defs>
  <clipPath id="p4af86f299d">
   <rect x="44.509156" y="0.72" width="90.156069" height="79.003457"/>
  </clipPath>
 </defs>
</svg>
